<?xml version="1.0" encoding="UTF-8" standalone="no"?>
<!-- Created with Inkscape (http://www.inkscape.org/) -->

<svg
   xmlns:dc="http://purl.org/dc/elements/1.1/"
   xmlns:cc="http://creativecommons.org/ns#"
   xmlns:rdf="http://www.w3.org/1999/02/22-rdf-syntax-ns#"
   xmlns:svg="http://www.w3.org/2000/svg"
   xmlns="http://www.w3.org/2000/svg"
   xmlns:sodipodi="http://sodipodi.sourceforge.net/DTD/sodipodi-0.dtd"
   xmlns:inkscape="http://www.inkscape.org/namespaces/inkscape"
   width="1000px"
   height="1000px"
   viewBox="0 0 1000 1000"
   version="1.1"
   id="SVGRoot"
   sodipodi:docname="Logo1.svg"
   inkscape:version="0.92.4 (5da689c313, 2019-01-14)">
  <defs
     id="defs125">
    <inkscape:path-effect
       effect="bspline"
       id="path-effect4776"
       is_visible="true"
       weight="33.333333"
       steps="2"
       helper_size="0"
       apply_no_weight="true"
       apply_with_weight="true"
       only_selected="false" />
    <inkscape:path-effect
       effect="bspline"
       id="path-effect4752"
       is_visible="true"
       weight="33.333333"
       steps="2"
       helper_size="0"
       apply_no_weight="true"
       apply_with_weight="true"
       only_selected="false" />
    <inkscape:path-effect
       effect="bspline"
       id="path-effect4748"
       is_visible="true"
       weight="33.333333"
       steps="2"
       helper_size="0"
       apply_no_weight="true"
       apply_with_weight="true"
       only_selected="false" />
    <inkscape:path-effect
       effect="bspline"
       id="path-effect4728"
       is_visible="true"
       weight="33.333333"
       steps="2"
       helper_size="0"
       apply_no_weight="true"
       apply_with_weight="true"
       only_selected="false" />
    <inkscape:path-effect
       effect="bspline"
       id="path-effect4698"
       is_visible="true"
       weight="33.333333"
       steps="2"
       helper_size="0"
       apply_no_weight="true"
       apply_with_weight="true"
       only_selected="false" />
    <inkscape:path-effect
       effect="bspline"
       id="path-effect4692"
       is_visible="true"
       weight="33.333333"
       steps="2"
       helper_size="0"
       apply_no_weight="true"
       apply_with_weight="true"
       only_selected="false" />
    <inkscape:path-effect
       effect="bspline"
       id="path-effect168"
       is_visible="true"
       weight="33.333333"
       steps="2"
       helper_size="0"
       apply_no_weight="true"
       apply_with_weight="true"
       only_selected="false" />
  </defs>
  <sodipodi:namedview
     id="base"
     pagecolor="#ffffff"
     bordercolor="#666666"
     borderopacity="1.0"
     inkscape:pageopacity="0.0"
     inkscape:pageshadow="2"
     inkscape:zoom="0.42815316"
     inkscape:cx="531.12839"
     inkscape:cy="553.56728"
     inkscape:document-units="px"
     inkscape:current-layer="layer1"
     showgrid="false"
     inkscape:window-width="1366"
     inkscape:window-height="705"
     inkscape:window-x="-8"
     inkscape:window-y="-8"
     inkscape:window-maximized="1"
     showguides="false" />
  <metadata
     id="metadata128">
    <rdf:RDF>
      <cc:Work
         rdf:about="">
        <dc:format>image/svg+xml</dc:format>
        <dc:type
           rdf:resource="http://purl.org/dc/dcmitype/StillImage" />
      </cc:Work>
    </rdf:RDF>
  </metadata>
  <g
     inkscape:label="Calque 1"
     inkscape:groupmode="layer"
     id="layer1">
    <ellipse
       style="opacity:0.98999999;fill:#ac9393;stroke:#ac9393;stroke-width:8.13583374;stroke-linecap:round;stroke-linejoin:round;stroke-miterlimit:4;stroke-dasharray:none;stroke-dashoffset:0;paint-order:normal"
       id="path4778"
       cx="586.28394"
       cy="898.28973"
       rx="275.4494"
       ry="52.402565" />
    <ellipse
       style="opacity:0.98999999;fill:#ac9393;stroke:#ac9393;stroke-width:8.13583374;stroke-linecap:round;stroke-linejoin:round;stroke-miterlimit:4;stroke-dasharray:none;stroke-dashoffset:0;paint-order:normal"
       id="path4780"
       cx="201.99854"
       cy="868.72937"
       rx="194.83008"
       ry="57.777187" />
    <path
       style="fill:none;stroke:#552200;stroke-width:4;stroke-linecap:butt;stroke-linejoin:miter;stroke-miterlimit:4;stroke-dasharray:none;stroke-opacity:1"
       d="m 460.77622,508.67052 c -7.43198,-9.35879 -14.86385,-18.71744 -30.0024,-28.07586 -15.13854,-9.35843 -37.98498,-18.71722 -51.33484,-24.0847 -13.34986,-5.36748 -17.20334,-6.74372 -21.05748,-8.1202"
       id="path166"
       inkscape:connector-curvature="0"
       inkscape:path-effect="#path-effect168"
       inkscape:original-d="m 460.77622,508.67052 c -7.43088,-9.35966 -14.86275,-18.71831 -22.29563,-28.07597 -22.84482,-9.35953 -45.69126,-18.71831 -68.53839,-28.07597 -3.85265,-1.3773 -7.70613,-2.75355 -11.5607,-4.12882"
       transform="matrix(-2.7516919,-1.7374925,1.7374925,-2.7516919,553.23235,2425.7127)" />
    <g
       id="g4744"
       transform="matrix(1.7984442,-2.7122476,2.7122476,1.7984442,-1928.9862,1473.0389)">
      <path
         style="opacity:0.98999999;fill:#5fd35f;stroke:#2ca02c;stroke-width:2.5;stroke-linecap:round;stroke-linejoin:round;stroke-miterlimit:4;stroke-dasharray:10, 5;stroke-dashoffset:0;stroke-opacity:1;paint-order:normal"
         d="m 720.64391,180.5668 c -16.54141,6.74346 -49.84612,20.64336 -74.27594,37.50296 -24.42982,16.85959 -39.98036,36.6762 -48.10121,53.81176 -8.12086,17.13555 -8.80896,31.58564 -6.12518,44.59209 2.68378,13.00644 8.73904,24.56648 11.76694,30.48414 3.0279,5.91767 3.0279,6.19292 11.03979,6.19291 8.0119,-1e-5 23.91866,-0.27426 39.883,-5.09126 15.96434,-4.81699 31.93012,-14.17625 44.24715,-27.80094 12.31702,-13.6247 20.98818,-31.51757 26.38982,-49.99399 5.40165,-18.47641 7.53487,-37.5378 9.1176,-50.85325 1.58273,-13.31544 2.61494,-20.88496 2.88209,-27.3871 0.26715,-6.50215 -0.23052,-11.93718 -0.36783,-14.86183 -0.13731,-2.92464 0.0852,-3.33894 -16.45623,3.40451 z"
         id="path4740"
         inkscape:connector-curvature="0"
         inkscape:path-effect="#path-effect4692"
         inkscape:original-d="m 737.4071,173.4104 c -33.30481,13.89936 -66.60952,27.79926 -99.91742,41.70108 -15.55139,19.81798 -31.10193,39.63459 -46.65566,59.45499 -0.68717,14.45065 -1.37527,28.90074 -2.06441,43.35261 6.05695,11.56034 12.1122,23.12038 18.16681,34.68208 -0.27427,0.27426 10e-4,0.54951 0,0.82576 16.02377,-0.27725 31.93053,-0.55151 47.8943,-0.82576 15.96475,-9.35906 31.93053,-18.71832 47.8943,-28.07597 8.67088,-17.89123 17.34204,-35.7841 26.01156,-53.67465 2.13422,-19.06238 4.26745,-38.12377 6.39967,-57.18415 1.0332,-7.5705 2.06541,-15.14001 3.09662,-22.70851 -0.49667,-5.43601 -0.99433,-10.87104 -1.493,-16.30506 0.22332,-0.41498 0.44582,-0.82928 0.66723,-1.24242 z"
         transform="translate(12.893003,156.98962)"
         sodipodi:nodetypes="ccccccccccccc" />
      <path
         style="fill:none;stroke:#00aa00;stroke-width:3;stroke-linecap:butt;stroke-linejoin:miter;stroke-miterlimit:4;stroke-dasharray:none;stroke-opacity:1"
         d="m 606.93642,351.77539 c 7.15718,-15.14019 14.31381,-30.2792 22.22749,-44.17954 7.91368,-13.90033 16.58419,-26.56204 27.86978,-38.81076 11.28558,-12.24871 25.18593,-24.08465 36.05842,-34.47559 10.87249,-10.39094 18.71724,-19.33671 25.32319,-29.10832 6.60594,-9.7716 11.97341,-20.36891 17.34027,-30.96501"
         id="path4742"
         inkscape:connector-curvature="0"
         inkscape:path-effect="#path-effect4698"
         inkscape:original-d="m 606.93642,351.77539 c 7.15761,-15.13999 14.31424,-30.279 21.46986,-45.41701 8.67152,-12.66272 17.34204,-25.32442 26.01156,-37.98514 13.90136,-11.83695 27.80171,-23.67289 41.70107,-35.50784 7.84576,-8.94678 15.69051,-17.89255 23.53426,-26.83732 5.36847,-10.5983 10.73594,-21.19561 16.1024,-31.79191"
         transform="translate(12.893003,156.98962)"
         sodipodi:nodetypes="cccccc" />
    </g>
    <ellipse
       id="path140"
       cx="166.83328"
       cy="750.06744"
       rx="267.97177"
       ry="282.71411"
       style="fill:#d4aa00;stroke-width:3.25433373"
       transform="rotate(-20.30737)" />
    <g
       id="g4738"
       transform="matrix(3.2543338,0,0,3.2543338,-1451.4929,-948.79773)">
      <path
         transform="translate(12.893003,156.98962)"
         inkscape:original-d="m 737.4071,173.4104 c -36.33261,9.90817 -72.66622,19.81734 -109.00082,29.7275 -14.03745,21.46956 -28.07497,42.93872 -42.11396,64.40958 0.82681,16.79044 1.65253,33.58006 2.47729,50.3716 6.05695,11.56034 12.1122,23.12038 18.16681,34.68208 -0.27427,0.27426 10e-4,0.54951 0,0.82576 16.02377,-0.27725 31.93053,-0.55151 47.8943,-0.82576 15.96475,-9.35906 31.93053,-18.71832 47.8943,-28.07597 6.33139,-19.2674 12.66271,-38.53665 18.99257,-57.80347 0.27624,-22.02 0.55151,-44.59225 0.82576,-66.88687 1.9277,-6.05633 3.85457,-12.11221 5.78035,-18.16681 2.80584,-2.33895 5.61178,-4.67781 8.41617,-7.01522 0.22332,-0.41498 0.44582,-0.82928 0.66723,-1.24242 z"
         inkscape:path-effect="#path-effect4692"
         inkscape:connector-curvature="0"
         id="path4690"
         d="m 719.13,178.5713 c -18.05533,4.74794 -54.38894,14.65711 -79.57517,30.34656 -25.18624,15.68944 -39.22376,37.1586 -45.83026,56.28936 -6.60649,19.13075 -5.78077,35.92037 -2.33999,50.0966 3.44078,14.17623 9.49604,25.73627 12.52394,31.65393 3.0279,5.91767 3.0279,6.19292 11.03979,6.19291 8.0119,-1e-5 23.91866,-0.27426 39.883,-5.09126 15.96434,-4.81699 31.93012,-14.17625 43.07731,-28.48903 11.14718,-14.31278 17.47851,-33.58203 20.77966,-54.22537 3.30116,-20.64333 3.57983,-43.21554 4.68099,-57.39111 1.10116,-14.17557 3.02803,-20.23145 5.39419,-24.42807 2.36616,-4.19663 5.1721,-6.53549 6.68574,-7.91183 1.51363,-1.37634 1.73613,-1.79064 -16.3192,2.95731 z"
         style="opacity:0.98999999;fill:#5fd35f;stroke:#2ca02c;stroke-width:2.5;stroke-linecap:round;stroke-linejoin:round;stroke-miterlimit:4;stroke-dasharray:10, 5;stroke-dashoffset:0;stroke-opacity:1;paint-order:normal" />
      <path
         transform="translate(12.893003,156.98962)"
         inkscape:original-d="m 606.93642,351.77539 c 8.80914,-12.93796 17.61729,-25.87493 26.42444,-38.8109 7.70744,-18.71665 15.41526,-37.43562 23.12139,-56.15194 10.18476,-13.4876 20.36984,-26.97595 30.55326,-40.46243 5.50563,-6.33133 11.01118,-12.66271 16.51527,-18.99256 10.73413,-7.70684 21.47086,-15.41526 32.20479,-23.12139"
         inkscape:path-effect="#path-effect4698"
         inkscape:connector-curvature="0"
         id="path4696"
         d="m 606.93642,351.77539 c 8.80892,-12.93811 17.61707,-25.87508 25.87423,-41.70142 8.25715,-15.82634 15.96496,-34.54531 24.91058,-50.64722 8.94562,-16.10192 19.1307,-29.59027 26.97527,-39.49915 7.84457,-9.90887 13.35012,-16.24025 21.46933,-23.25847 8.11921,-7.01822 18.85594,-14.72664 29.58974,-22.43296"
         style="fill:none;stroke:#00aa00;stroke-width:3;stroke-linecap:butt;stroke-linejoin:miter;stroke-miterlimit:4;stroke-dasharray:none;stroke-opacity:1" />
    </g>
    <path
       style="fill:#ffcc00;stroke:#ffd42a;stroke-width:2;stroke-linecap:butt;stroke-linejoin:miter;stroke-miterlimit:4;stroke-dasharray:none;stroke-opacity:1"
       d="m 449.66826,516.25534 c -4.34408,4.06699 -5.99792,6.98553 -7.31233,10.39278 -1.31441,3.40724 -2.287,7.29763 -2.23853,13.91705 0.0485,6.61941 1.11856,15.95837 3.55173,25.64274 2.43316,9.68437 6.22808,19.70686 10.02359,27.58988 3.79551,7.88302 7.59065,13.62439 12.26199,18.97698 4.67134,5.3526 10.21837,10.31573 17.17661,16.39811 6.95824,6.08237 15.32746,13.28379 23.40505,18.24704 8.07759,4.96325 15.86294,7.68812 22.86981,8.70982 7.00687,1.02169 13.23563,0.34042 17.61495,-0.43827 4.37933,-0.77868 6.90958,-1.65454 8.0282,-2.23815 1.11862,-0.58362 0.63189,-1.07036 2.77336,-3.69844 2.14147,-2.62807 6.81269,-7.49393 10.51022,-13.13775 3.69754,-5.64382 6.42299,-12.0681 8.75836,-18.29583 2.33536,-6.22773 4.28207,-12.26253 5.06043,-18.68466 0.77836,-6.42213 0.38901,-13.23568 -0.89963,-21.74179 -1.28864,-8.50611 -3.47715,-18.70913 -6.83805,-27.41042 -3.3609,-8.7013 -7.8945,-15.90278 -14.1964,-23.1611 -6.30189,-7.25832 -14.37231,-14.57381 -24.88231,-20.07563 -10.51001,-5.50183 -23.45922,-9.18984 -35.07583,-9.80253 -11.61662,-0.61268 -21.89704,1.85035 -30.55584,5.68965 -8.6588,3.83931 -15.6913,9.05353 -20.03538,13.12052 z"
       id="path4774"
       inkscape:connector-curvature="0"
       inkscape:path-effect="#path-effect4776"
       inkscape:original-d="m 446.9779,517.404 c -1.65339,2.91852 -3.30723,5.83706 -4.96317,8.75855 -0.9725,3.89299 -1.9451,7.78338 -2.91952,11.67806 1.07177,9.34384 2.14185,18.6828 3.21147,28.02736 3.79682,10.02385 7.59174,20.04634 11.38611,30.07101 3.7966,5.74106 7.59174,11.48243 11.38611,17.22515 5.54809,4.96218 11.09512,9.92532 16.64124,14.88953 8.37034,7.20052 16.73956,14.40194 25.10784,21.60442 7.7864,2.72389 15.57175,5.44876 23.35613,8.17464 6.22884,-0.68217 12.4576,-1.36344 18.6849,-2.04366 2.53125,-0.87685 5.0615,-1.75271 7.59074,-2.62756 -0.19353,-0.39007 -0.77753,-0.77954 -1.1678,-1.16781 4.67223,-4.86686 9.34345,-9.73272 14.01367,-14.59758 2.72532,-6.42259 5.45077,-12.84687 8.17465,-19.26881 1.94698,-6.03353 3.89369,-12.06833 5.83903,-18.101 -0.38819,-6.81185 -0.77754,-13.6254 -1.1678,-20.43661 -2.1869,-10.2012 -4.37542,-20.40422 -6.56462,-30.60482 -4.5326,-7.20247 -9.0662,-14.40395 -13.60079,-21.60442 -8.06941,-7.31649 -16.13983,-14.63197 -24.21124,-21.94646 -12.94921,-3.68931 -25.89842,-7.37733 -38.85031,-11.06482 -10.28185,2.4626 -20.56227,4.92563 -30.84669,7.39037 -7.03313,5.21443 -14.06563,10.42864 -21.09995,15.64446 z"
       sodipodi:nodetypes="cccccccccccccccccccccc"
       transform="matrix(3.2543338,0,0,3.2543338,-1223.62,-1252.9028)" />
    <ellipse
       id="path138"
       cx="614.02191"
       cy="729.21747"
       rx="299.15103"
       ry="220.25403"
       style="fill:#ffd42a;stroke:#d4aa00;stroke-width:6.50866747;stroke-miterlimit:4;stroke-dasharray:none" />
    <g
       id="g4796"
       transform="matrix(3.1833533,0,0,3.6586749,-1183.8098,-1503.3021)">
      <g
         id="g4791">
        <ellipse
           style="fill:#c87137"
           id="path144"
           cx="564.29846"
           cy="612.151"
           rx="40.406101"
           ry="23.233509" />
      </g>
      <path
         transform="translate(2.4772915,3.3030553)"
         sodipodi:nodetypes="ccccccccccccccccccc"
         inkscape:original-d="m 521.26342,609.41371 c 6.0566,1.85697 12.1122,3.71493 18.1668,5.5739 8.87704,1.37513 17.75493,2.75155 26.63089,4.12882 6.74411,-2.27164 13.48847,-4.5427 20.23121,-6.81255 3.26907,-2.20265 6.5383,-4.40507 9.80595,-6.60611 1.46451,-1.70953 2.92802,-3.41806 4.39054,-5.1256 -0.70557,-0.39128 -1.41418,-0.7827 -2.11969,-1.17085 0.70551,0.38815 1.41411,0.77956 2.11969,1.17085 0.76214,2.54861 1.52305,5.09749 2.28336,7.64869 -0.27605,2.39209 -0.55296,4.78399 -0.83094,7.17749 -3.87273,4.56056 -7.74537,9.12084 -11.62117,13.68467 -9.96621,1.45803 -19.92665,2.91607 -29.89332,4.37588 -7.20517,-1.20366 -14.40956,-2.40603 -21.61584,-3.60754 -3.95625,-2.71946 -7.91242,-5.43718 -11.87035,-8.15442 -1.685,-2.51279 -3.37087,-5.02439 -5.05781,-7.53509 -0.16242,-1.17939 -0.32586,-2.37507 -0.49029,-3.56111 -0.0678,-0.27606 -0.13663,-0.55151 -0.20645,-0.82576 0.0267,-0.12112 0.0526,-0.24185 0.0774,-0.36127 z"
         inkscape:path-effect="#path-effect4728"
         inkscape:connector-curvature="0"
         id="path4726"
         d="m 524.29154,610.34279 c 3.02811,0.92908 9.08371,2.78705 16.54963,4.40406 7.46592,1.61702 16.34381,2.99344 24.15403,2.54599 7.81022,-0.44745 14.55458,-2.71851 19.56046,-4.95495 5.00588,-2.23643 8.27511,-4.43886 10.64107,-6.39429 2.36597,-1.95543 3.82948,-3.66396 4.20767,-4.71274 0.37819,-1.04879 -0.33043,-1.4402 -0.33043,-1.4402 0,0 0.7086,0.39141 1.44219,1.86094 0.73359,1.46954 1.49451,4.01842 1.7368,6.48983 0.24229,2.47142 -0.0346,4.86332 -2.10958,8.34036 -2.07497,3.47705 -5.9476,8.03733 -12.86851,11.04871 -6.9209,3.01139 -16.88134,4.46943 -25.46741,4.59765 -8.58608,0.12822 -15.79047,-1.07414 -21.37203,-3.03462 -5.58157,-1.96048 -9.53774,-4.6782 -12.35938,-7.29341 -2.82165,-2.6152 -4.50752,-5.1268 -5.43161,-6.97223 -0.92408,-1.84544 -1.08868,-3.04096 -1.20481,-3.77194 -0.11613,-0.73098 -0.18499,-1.00642 -0.20632,-1.20433 -0.0213,-0.19791 0.005,-0.31865 0.0173,-0.37828 0.0128,-0.0596 0.0128,-0.0596 3.04092,0.86945 z"
         style="fill:#d38d5f;stroke:none;stroke-width:1px;stroke-linecap:butt;stroke-linejoin:miter;stroke-opacity:1" />
    </g>
  </g>
</svg>
